<svg version="1.0" xmlns="http://www.w3.org/2000/svg"
 width="288" height="288" viewBox="0 0 100 100"
 preserveAspectRatio="xMidYMid meet">

  <g transform="translate(0.000000,288.000000) scale(0.100000,-0.100000)"
fill="#000000" stroke="none">
    <g transform="scale(0.8,0.8)">
	<path d="M641 2611 c-61 -25 -132 -98 -154 -157 -16 -45 -17 -123 -17 -1024 0
-1104 -5 -1033 80 -1117 88 -88 34 -83 963 -83 l819 0 29 29 c20 20 29 39 29
61 0 22 -9 41 -29 61 l-29 29 -812 0 -812 0 -29 30 c-22 22 -29 37 -27 57 l3
28 843 5 844 5 24 28 24 28 0 907 c0 1029 5 963 -83 1052 -83 84 -42 80 -882
79 -688 0 -743 -1 -784 -18z m1240 -610 c39 -40 39 -82 0 -122 l-29 -29 -422
0 -422 0 -29 29 c-20 20 -29 39 -29 61 0 22 9 41 29 61 l29 29 422 0 422 0 29
-29z"/>
    </g>
    <g transform="translate(2000,750) rotate(180,75,90) scale(1.75,1.75)">
<path d="m 136v60c0 8.28-6.72 15-15 15s-15-6.72-15-15v-60c0-8.28 6.72-15 15-15s15 6.72 15 15z" fill="#fabe2c"/>
    <path d="m420 106v90c0 8.28-6.72 15-15 15s-15-6.72-15-15v-90c0-8.28 6.72-15 15-15s15 6.72 15 15z" fill="#6aa9ff"/>
       <path d="M 360 106 v 90 c 0 8.28 -6.72 15 -15 15 s -15 -6.72 -15 -15 v -62 c 0 -8.28 6.72 -15 15 -15 s 15 6.72 15 15 z" fill="#fed843"/>vvvvvv
    <path d="m480 76v120c0 8.28-6.72 15-15 15s-15-6.72-15-15v-120c0-8.28 6.72-15 15-15s15 6.72 15 15z" fill="#ff435b"/>
    <path d="m270 46v195l-127-8-96.2-62.48c34.44-84.05 116.27-139.52 208.2-139.52 8.28 0 15 6.72 15 15z" fill="#fed843"/>
    <path d="m480 256c0 119.33-92.66 216.8-210 224.5-4.96.33-9.96.5-15 .5-37.49 0-74.13-9.27-106.82-26.93l29.9-122.07 91.92-91h195c8.28 0 15 6.72 15 15z" fill="#ff7b4a"/>
    <path d="m480 256c0 119.33-92.66 216.8-210 224.5v-239.5h195c8.28 0 15 6.72 15 15z" fill="#ff435b"/>
    <path d="m270 241c-10.156 17.764-123.875 216.661-129.5 226.5-4.4 7.04-13.67 9.15-20.68 4.76-72.8-45.6-119.82-126.15-119.82-216.26 0-27.58 4.38-54.72 13.02-80.66 2.62-7.85 11.12-12.11 18.98-9.49.161.051 235.875 74.479 238 75.15z" fill="#7ed8f6"/>
  
    <path d="m512 196c0 8.28-6.72 15-15 15h-182c-8.28 0-15-6.72-15-15s6.72-15 15-15h182c8.28 0 15 6.72 15 15z" fill="#61729b"/>
    </g>
  </g>
</svg>